<svg width="98" height="93" viewBox="0 0 98 93" fill="none" xmlns="http://www.w3.org/2000/svg">
<path d="M8.61953 10.2852C8.89297 10.4544 9.16641 10.6562 9.43985 10.8906C10.1951 11.5286 10.7745 12.2188 11.1781 12.9609C11.738 13.9505 12.018 14.6862 12.018 15.168C12.005 15.9232 11.3995 16.3008 10.2016 16.3008H7.6625V23H10.2992C11.0544 22.9479 11.738 22.7005 12.35 22.2578C13.4177 21.4766 13.9516 20.2331 13.9516 18.5273V14.6992C13.8865 12.8763 13.5609 11.0469 12.975 9.21094C12.4411 7.54427 11.7576 6.25521 10.9242 5.34375L8.61953 10.2852ZM6.84219 16.3008H5.18203C4.80443 16.3008 4.43985 16.1901 4.08828 15.9688C3.67162 15.6953 3.45026 15.3438 3.42422 14.9141C3.4112 14.7188 3.40469 14.2956 3.40469 13.6445H1.51016C1.27578 15.0117 1.13255 16.1966 1.08047 17.1992C0.976304 19.2826 1.39948 20.7865 2.35 21.7109C3.2224 22.5703 4.62214 23 6.54922 23H6.84219V16.3008ZM10.2797 4.73828C9.43334 4.07422 8.45677 3.74219 7.35 3.74219C5.64427 3.74219 4.30964 4.875 3.3461 7.14062C2.86433 8.28646 2.55183 9.42578 2.4086 10.5586H4.26406C4.38125 10.3112 4.58308 10.0833 4.86953 9.875C5.45547 9.47135 6.18464 9.3737 7.05703 9.58203C7.33047 9.64714 7.61042 9.74479 7.89688 9.875L10.2797 4.73828ZM23.0133 16.3008C22.3622 16.3008 21.8935 16.125 21.607 15.7734C21.3466 15.4479 21.2164 14.9336 21.2164 14.2305V1.75C21.2294 1.35938 21.1188 1.08594 20.8844 0.929688C20.65 0.786458 20.3635 0.832031 20.025 1.06641C19.1526 1.69141 17.7138 2.66797 15.7086 3.99609C15.3701 4.24349 15.1357 4.56901 15.0055 4.97266C14.8883 5.33724 14.8818 5.71484 14.9859 6.10547C15.0901 6.48307 15.2854 6.78906 15.5719 7.02344C15.8844 7.27083 16.2555 7.375 16.6852 7.33594V17.2969C16.6852 18.8724 17.1279 20.2135 18.0133 21.3203C18.8857 22.4401 19.9469 23 21.1969 23H24.1656V16.3008H23.0133ZM26.8602 23.8203C26.782 24.6146 26.9122 25.3307 27.2508 25.9688C27.4721 26.3984 27.726 26.724 28.0125 26.9453L34.8484 32.3555L37.6219 27.3555L35.9813 26.4375C36.3068 25.4479 36.5802 24.6602 36.8016 24.0742C36.9839 23.6055 37.2768 23.2865 37.6805 23.1172C37.8888 23.026 38.0776 22.987 38.2469 23H41.1961V16.3008H39.6336C38.9174 16.3008 38.2664 16.5091 37.6805 16.9258C37.0685 17.3555 36.6453 17.9154 36.4109 18.6055L34.1844 25.4219L31.3523 23.8203H26.8602ZM33.4813 12.0234L34.3602 9.58203C33.6701 9.46484 32.9995 9.5625 32.3484 9.875C31.5151 10.2917 30.9487 10.9427 30.6492 11.8281L29.1258 16.3008H25.7469V23H32.7C33.6896 23 34.3992 22.3099 34.8289 20.9297C34.9461 20.5651 35.1414 19.9336 35.4148 19.0352L37.0359 13.9961C37.3354 13.1107 37.2768 12.2513 36.8602 11.418C36.4956 10.6628 35.9357 10.1289 35.1805 9.81641L34.2625 12.3555C34.3667 12.4596 34.4578 12.5833 34.5359 12.7266C34.6922 13.0391 34.7117 13.3581 34.5945 13.6836L33.7156 16.3008H31.0984L32.2508 12.8828C32.3549 12.5573 32.5633 12.3164 32.8758 12.1602C33.0711 12.056 33.2729 12.0104 33.4813 12.0234ZM52.9336 16.3008H50.7852C50.3815 16.3008 50.03 16.1576 49.7305 15.8711C49.418 15.5586 49.2617 15.2005 49.2617 14.7969V12.707H46.5664V14.7969C46.5664 15.2135 46.4167 15.5716 46.1172 15.8711C45.8047 16.1576 45.4531 16.3008 45.0625 16.3008H42.8945V23H44.125C45.5833 23 46.8398 22.2904 47.8945 20.8711C48.9492 22.2904 50.2188 23 51.7031 23H52.9336V16.3008ZM48.0898 11.7109C47.9727 11.8411 47.8555 11.8411 47.7383 11.7109L45.5703 9.5625C45.4531 9.44531 45.4531 9.32161 45.5703 9.19141L47.7383 7.04297C47.8555 6.92578 47.9727 6.92578 48.0898 7.04297L50.2578 9.19141C50.375 9.32161 50.375 9.44531 50.2578 9.5625L48.0898 11.7109ZM67.3469 16.3008C66.6698 16.3008 66.2531 15.9427 66.0969 15.2266V12.6875H63.3625V15.2266C63.2063 15.9427 62.7961 16.3008 62.132 16.3008C61.7284 16.3008 61.4094 16.151 61.175 15.8516C60.9537 15.5781 60.843 15.2201 60.843 14.7773V12.6875H58.1477V14.7773C58.1477 15.207 57.9979 15.5651 57.6984 15.8516C57.412 16.151 57.0539 16.3008 56.6242 16.3008H54.632V23H55.8625C57.0474 23 58.1477 22.4206 59.1633 21.2617C59.8404 22.3815 60.7453 22.9609 61.8781 23C63.024 23.0391 63.955 22.5117 64.6711 21.418C65.4003 22.5117 66.3508 23.0391 67.5227 23C68.6945 22.9609 69.6255 22.3815 70.3156 21.2617C71.3182 22.4206 72.412 23 73.5969 23H74.7688V16.3008H72.8352C72.4185 16.3008 72.0604 16.151 71.7609 15.8516C71.4615 15.5521 71.3117 15.194 71.3117 14.7773V12.6875H68.6164V14.7773C68.6164 15.2201 68.5122 15.5781 68.3039 15.8516C68.0695 16.151 67.7505 16.3008 67.3469 16.3008ZM64.8664 8.13672C64.7492 8.25391 64.6255 8.25391 64.4953 8.13672L62.3469 5.98828C62.2297 5.85807 62.2297 5.73438 62.3469 5.61719L64.4953 3.46875C64.6255 3.33854 64.7492 3.33854 64.8664 3.46875L67.0149 5.61719C67.1451 5.73438 67.1451 5.85807 67.0149 5.98828L64.8664 8.13672ZM62.4445 11.7109C62.3274 11.8281 62.2102 11.8281 62.093 11.7109L59.9445 9.5625C59.8143 9.43229 59.8143 9.30859 59.9445 9.19141L62.093 7.04297C62.2102 6.91276 62.3339 6.91276 62.4641 7.04297L64.6125 9.19141C64.7297 9.30859 64.7297 9.43229 64.6125 9.5625L62.4445 11.7109ZM67.2688 11.7109C67.1516 11.8281 67.0344 11.8281 66.9172 11.7109L64.7492 9.5625C64.632 9.43229 64.632 9.30859 64.7492 9.19141L66.9172 7.04297C67.0344 6.91276 67.1516 6.91276 67.2688 7.04297L69.4367 9.19141C69.5539 9.30859 69.5539 9.43229 69.4367 9.5625L67.2688 11.7109ZM87.307 16.3008H84.768C84.3643 16.3008 84.0128 16.1576 83.7133 15.8711C83.4008 15.5586 83.2445 15.2005 83.2445 14.7969V12.6875H80.5492V14.7969C80.5492 15.2135 80.3995 15.5716 80.1 15.8711C79.7875 16.1576 79.4359 16.3008 79.0453 16.3008H76.4867V23H78.1078C79.5662 23 80.8227 22.2904 81.8773 20.8711C82.932 22.2904 84.2016 23 85.6859 23H87.307V16.3008ZM79.6703 28.8203C79.5531 28.9505 79.4294 28.9505 79.2992 28.8203L77.1508 26.6719C77.0336 26.5547 77.0336 26.431 77.1508 26.3008L79.2992 24.1523C79.4294 24.0352 79.5531 24.0352 79.6703 24.1523L81.8188 26.3008C81.949 26.431 81.949 26.5547 81.8188 26.6719L79.6703 28.8203ZM84.4945 28.8203C84.3643 28.9505 84.2406 28.9505 84.1234 28.8203L81.975 26.6719C81.8578 26.5547 81.8578 26.431 81.975 26.3008L84.1234 24.1523C84.2406 24.0352 84.3643 24.0352 84.4945 24.1523L86.643 26.3008C86.7602 26.431 86.7602 26.5547 86.643 26.6719L84.4945 28.8203ZM92.8141 32.2969C92.6969 32.4271 92.5732 32.4271 92.443 32.2969L90.2945 30.1484C90.1773 30.0312 90.1773 29.9076 90.2945 29.7773L92.443 27.6289C92.5732 27.5117 92.6969 27.5117 92.8141 27.6289L94.9625 29.7773C95.0927 29.9076 95.0927 30.0312 94.9625 30.1484L92.8141 32.2969ZM90.4117 28.8203C90.2815 28.9375 90.1578 28.9375 90.0406 28.8203L87.8922 26.6719C87.762 26.5417 87.762 26.418 87.8922 26.3008L90.0406 24.1523C90.1578 24.0221 90.2815 24.0221 90.4117 24.1523L92.5602 26.3008C92.6773 26.418 92.6773 26.5417 92.5602 26.6719L90.4117 28.8203ZM95.2359 28.8203C95.1057 28.9375 94.982 28.9375 94.8648 28.8203L92.7164 26.6719C92.5862 26.5417 92.5862 26.418 92.7164 26.3008L94.8648 24.1523C94.982 24.0221 95.1057 24.0221 95.2359 24.1523L97.3844 26.3008C97.5016 26.418 97.5016 26.5417 97.3844 26.6719L95.2359 28.8203ZM95.9586 15.4805V12.6094C95.9586 10.8255 95.262 9.08073 93.8687 7.375L90.0992 12.8633C92.1695 14.0872 93.2633 14.9596 93.3805 15.4805H95.9586ZM89.0055 16.3008V23H91.0367C91.9742 23 92.8401 22.8177 93.6344 22.4531C95.1838 21.737 95.9586 20.474 95.9586 18.6641V16.3008H89.0055ZM20.6203 44.3281C20.5031 44.4583 20.3794 44.4583 20.2492 44.3281L18.1008 42.1797C17.9836 42.0625 17.9836 41.9388 18.1008 41.8086L20.2492 39.6602C20.3794 39.543 20.5031 39.543 20.6203 39.6602L22.7687 41.8086C22.899 41.9388 22.899 42.0625 22.7687 42.1797L20.6203 44.3281ZM25.4445 44.3281C25.3273 44.4583 25.2036 44.4583 25.0734 44.3281L22.925 42.1797C22.8078 42.0625 22.8078 41.9388 22.925 41.8086L25.0734 39.6602C25.2036 39.543 25.3273 39.543 25.4445 39.6602L27.593 41.8086C27.7232 41.9388 27.7232 42.0625 27.593 42.1797L25.4445 44.3281ZM20.5031 53H27.5344C27.912 53.013 28.4458 52.8958 29.1359 52.6484C30.2036 52.2578 31.1021 51.6328 31.8312 50.7734C32.6516 52.2578 33.8365 53 35.3859 53H37.1828V46.3008H36.0305C35.6138 46.3008 35.2687 46.112 34.9953 45.7344C34.7219 45.3698 34.6177 44.9727 34.6828 44.543C34.9042 43.1758 35.0604 42.3294 35.1516 42.0039H32.8664C32.7753 42.7201 32.4823 43.4362 31.9875 44.1523C30.9979 45.5846 29.5135 46.3008 27.5344 46.3008H20.5031V53ZM19.6828 46.3008H15.2883C14.7674 46.3529 14.3052 46.2096 13.9016 45.8711C13.0812 45.207 12.938 43.918 13.4719 42.0039H11.5578C10.8547 43.7357 10.4836 45.487 10.4445 47.2578C10.4185 48.8203 10.7245 50.0703 11.3625 51.0078C12.1568 52.1927 13.4654 52.8568 15.2883 53H19.6828V46.3008ZM45.1117 37.1406C44.9945 37.2578 44.8708 37.2578 44.7406 37.1406L42.5922 34.9922C42.475 34.862 42.475 34.7383 42.5922 34.6211L44.7406 32.4727C44.8708 32.3424 44.9945 32.3424 45.1117 32.4727L47.2602 34.6211C47.3904 34.7383 47.3904 34.862 47.2602 34.9922L45.1117 37.1406ZM44.2719 42.6289V37.8828C43.6599 38.013 43.0544 38.306 42.4555 38.7617C41.3487 39.6081 40.613 40.7799 40.2484 42.2773C39.8969 43.7227 39.988 45.0638 40.5219 46.3008H38.8812V53H39.0375C40.5219 53 42.0518 52.4661 43.6273 51.3984C44.5518 52.4661 45.7953 53 47.3578 53H49.5453V46.3008H48.1977C48.5362 45.7279 48.7901 45.1029 48.9594 44.4258C49.324 42.9284 49.2133 41.5417 48.6273 40.2656C48.0414 39.0026 47.143 38.2214 45.932 37.9219C45.6456 37.8438 45.3591 37.8047 45.0727 37.8047V42.668C45.307 42.7331 45.5544 42.8372 45.8148 42.9805C46.3487 43.293 46.6156 43.6901 46.6156 44.1719C46.6156 44.875 46.2771 45.4414 45.6 45.8711C45.2745 46.0924 44.9424 46.2357 44.6039 46.3008C44.2654 46.2617 43.9333 46.138 43.6078 45.9297C42.9307 45.526 42.5922 44.9401 42.5922 44.1719C42.5922 43.625 42.8591 43.2083 43.393 42.9219C43.6794 42.7656 43.9724 42.668 44.2719 42.6289ZM60.5602 26.1641L53.7242 29.6406L53.1578 31.9453L59.9937 28.4492L60.5602 26.1641ZM66.0484 46.3008V53H65.0328C63.7698 53 62.5068 52.1276 61.2437 50.3828C60.762 51.4375 59.9026 52.1862 58.6656 52.6289C57.9755 52.8763 57.2854 53 56.5953 53H51.2633V46.3008L57.1617 46.3203C58.0341 46.3073 58.6005 46.0534 58.8609 45.5586C59.0953 45.1159 59.0497 44.6211 58.7242 44.0742C58.1773 43.1237 56.745 41.9844 54.4273 40.6562C52.7737 39.6797 51.7125 39.0872 51.2437 38.8789L52.982 32.7266L63.4117 27.4727C63.9065 27.2122 64.3102 27.1667 64.6227 27.3359C64.9612 27.5052 65.0849 27.8568 64.9937 28.3906C64.9156 28.8073 64.7008 29.8945 64.3492 31.6523C64.0367 33.1367 63.8219 34.2174 63.7047 34.8945C63.6396 35.207 63.4703 35.4479 63.1969 35.6172C62.9365 35.7865 62.65 35.8385 62.3375 35.7734C62.025 35.7083 61.7906 35.5456 61.6344 35.2852C61.4651 35.0378 61.4065 34.7643 61.4586 34.4648L56.9859 36.5352C57.2724 36.7695 57.8062 37.2773 58.5875 38.0586C58.8219 38.293 58.9781 38.4557 59.0562 38.5469C60.1891 39.9531 60.9898 41.151 61.4586 42.1406C61.6799 42.6094 62.0445 43.6641 62.5523 45.3047C62.6695 45.513 62.7802 45.6823 62.8844 45.8125C63.1578 46.125 63.5159 46.2878 63.9586 46.3008H66.0484ZM77.5125 38.1367C77.3953 38.2539 77.2716 38.2539 77.1414 38.1367L74.993 35.9883C74.8758 35.8581 74.8758 35.7344 74.993 35.6172L77.1414 33.4688C77.2716 33.3385 77.3953 33.3385 77.5125 33.4688L79.6609 35.6172C79.7911 35.7344 79.7911 35.8581 79.6609 35.9883L77.5125 38.1367ZM75.0906 41.7109C74.9734 41.8281 74.8562 41.8281 74.7391 41.7109L72.5711 39.5625C72.4539 39.4323 72.4539 39.3086 72.5711 39.1914L74.7391 37.043C74.8562 36.9128 74.9734 36.9128 75.0906 37.043L77.2586 39.1914C77.3758 39.3086 77.3758 39.4323 77.2586 39.5625L75.0906 41.7109ZM79.9148 41.7109C79.7977 41.8281 79.6805 41.8281 79.5633 41.7109L77.3953 39.5625C77.2781 39.4323 77.2781 39.3086 77.3953 39.1914L79.5633 37.043C79.6805 36.9128 79.7977 36.9128 79.9148 37.043L82.0828 39.1914C82.2 39.3086 82.2 39.4323 82.0828 39.5625L79.9148 41.7109ZM86.907 45.4805V42.5508C86.9461 42.1862 86.8875 41.7044 86.7312 41.1055C86.4187 39.8815 85.7742 38.6576 84.7977 37.4336L80.9891 42.7266C83.1766 44.0417 84.2964 44.9596 84.3484 45.4805H86.907ZM75.7547 52.9805C76.8094 52.8893 77.6687 52.3424 78.3328 51.3398C79.0099 52.1211 79.8497 52.6289 80.8523 52.8633C81.7898 53.0846 82.7273 53.0456 83.6648 52.7461C84.6154 52.4466 85.3771 51.9453 85.95 51.2422C86.588 50.474 86.907 49.5885 86.907 48.5859V46.3008H81.7117C81.1779 46.3008 80.6831 46.1836 80.2273 45.9492C79.6544 45.6758 79.368 45.2852 79.368 44.7773V42.7266H76.6727V44.7773C76.6727 45.2201 76.5685 45.5781 76.3602 45.8516C76.2039 46.0599 76.0021 46.1966 75.7547 46.2617V52.9805ZM74.9344 46.2227C74.7391 46.1445 74.5763 46.0208 74.4461 45.8516C74.2247 45.5781 74.1141 45.2201 74.1141 44.7773V42.7266H71.4187V44.7773C71.4187 45.207 71.269 45.5651 70.9695 45.8516C70.6831 46.151 70.3315 46.3008 69.9148 46.3008H67.7469V53H69.2898C70.3706 53 71.4187 52.4206 72.4344 51.2617C73.0464 52.2773 73.8797 52.8503 74.9344 52.9805V46.2227ZM25.6891 70.5C25.5589 70.6172 25.4352 70.6172 25.318 70.5L23.1695 68.3516C23.0393 68.2214 23.0393 68.0977 23.1695 67.9805L25.318 65.832C25.4352 65.7018 25.5589 65.7018 25.6891 65.832L27.8375 67.9805C27.9547 68.0977 27.9547 68.2214 27.8375 68.3516L25.6891 70.5ZM28.4234 82.1992C29.1266 82.7331 29.9339 83 30.8453 83H32.4859V76.3008H30.8062C29.8818 76.3138 28.7685 75.487 27.4664 73.8203C26.1904 72.1927 25.5328 71.3203 25.4937 71.2031L21.9 76.3398C22.525 76.8737 23.0849 77.3685 23.5797 77.8242L28.4234 82.1992ZM26.4898 81.5547C26.3076 83.2214 22.1539 85.7344 14.0289 89.0938C14.719 89.6276 15.5458 90.168 16.5094 90.7148C18.4495 91.7956 20.1096 92.3359 21.4898 92.3359C23.9247 92.3359 25.663 91.3854 26.7047 89.4844C27.525 88.013 27.9807 85.8516 28.0719 83L26.4898 81.5547ZM25.4937 71.2031C25.4807 71.1901 25.4807 71.1836 25.4937 71.1836V71.2031ZM45.0047 76.3008H42.4656C42.062 76.3008 41.7104 76.1576 41.4109 75.8711C41.0984 75.5586 40.9422 75.2005 40.9422 74.7969V72.6875H38.2469V74.7969C38.2469 75.2135 38.0971 75.5716 37.7977 75.8711C37.4852 76.1576 37.1336 76.3008 36.743 76.3008H34.1844V83H35.8055C37.2638 83 38.5203 82.2904 39.575 80.8711C40.6297 82.2904 41.8992 83 43.3836 83H45.0047V76.3008ZM37.368 88.8203C37.2508 88.9505 37.1271 88.9505 36.9969 88.8203L34.8484 86.6719C34.7313 86.5547 34.7313 86.431 34.8484 86.3008L36.9969 84.1523C37.1271 84.0352 37.2508 84.0352 37.368 84.1523L39.5164 86.3008C39.6466 86.431 39.6466 86.5547 39.5164 86.6719L37.368 88.8203ZM42.1922 88.8203C42.062 88.9505 41.9383 88.9505 41.8211 88.8203L39.6727 86.6719C39.5555 86.5547 39.5555 86.431 39.6727 86.3008L41.8211 84.1523C41.9383 84.0352 42.062 84.0352 42.1922 84.1523L44.3406 86.3008C44.4578 86.431 44.4578 86.5547 44.3406 86.6719L42.1922 88.8203ZM56.0391 56.1641L49.2031 59.6406L48.6367 61.9453L55.4727 58.4492L56.0391 56.1641ZM61.5273 76.3008V83H60.5117C59.2487 83 57.9857 82.1276 56.7227 80.3828C56.2409 81.4375 55.3815 82.1862 54.1445 82.6289C53.4544 82.8763 52.7643 83 52.0742 83H46.7422V76.3008L52.6406 76.3203C53.513 76.3073 54.0794 76.0534 54.3398 75.5586C54.5742 75.1159 54.5286 74.6211 54.2031 74.0742C53.6562 73.1237 52.224 71.9844 49.9062 70.6562C48.2526 69.6797 47.1914 69.0872 46.7227 68.8789L48.4609 62.7266L58.8906 57.4727C59.3854 57.2122 59.7891 57.1667 60.1016 57.3359C60.4401 57.5052 60.5638 57.8568 60.4727 58.3906C60.3945 58.8073 60.1797 59.8945 59.8281 61.6523C59.5156 63.1367 59.3008 64.2174 59.1836 64.8945C59.1185 65.207 58.9492 65.4479 58.6758 65.6172C58.4154 65.7865 58.1289 65.8385 57.8164 65.7734C57.5039 65.7083 57.2695 65.5456 57.1133 65.2852C56.944 65.0378 56.8854 64.7643 56.9375 64.4648L52.4648 66.5352C52.7513 66.7695 53.2852 67.2773 54.0664 68.0586C54.3008 68.293 54.457 68.4557 54.5352 68.5469C55.668 69.9531 56.4688 71.151 56.9375 72.1406C57.1589 72.6094 57.5234 73.6641 58.0312 75.3047C58.1484 75.513 58.2591 75.6823 58.3633 75.8125C58.6367 76.125 58.9948 76.2878 59.4375 76.3008H61.5273ZM67.9914 66.4961C67.8742 66.6133 67.7505 66.6133 67.6203 66.4961L65.4719 64.3477C65.3547 64.2174 65.3547 64.0938 65.4719 63.9766L67.6203 61.8281C67.7505 61.6979 67.8742 61.6979 67.9914 61.8281L70.1398 63.9766C70.2701 64.0938 70.2701 64.2174 70.1398 64.3477L67.9914 66.4961ZM69.8664 75.4805V72.6289C69.8664 70.832 69.1698 69.0872 67.7766 67.3945L64.0266 72.8828C66.0708 74.0938 67.1646 74.9596 67.3078 75.4805H69.8664ZM63.2258 76.3008V83H64.9641C65.8885 83 66.7479 82.8177 67.5422 82.4531C69.0917 81.75 69.8664 80.487 69.8664 78.6641V76.3008H63.2258ZM78.6352 61.3398C78.6612 61.1185 78.5505 60.9688 78.3031 60.8906C78.0818 60.8255 77.7888 60.9362 77.4242 61.2227C77.0076 61.5091 75.113 62.8307 71.7406 65.1875L74.807 83H76.8578C78.0427 68.638 78.6352 61.418 78.6352 61.3398Z" fill="white"/>
</svg>
